<?xml version="1.0" encoding="UTF-8" standalone="no"?>
<svg
   viewBox="0 0 640 640"
   version="1.1"
   id="svg1"
   sodipodi:docname="arrow-left-solid-full.svg"
   inkscape:version="1.3.2 (091e20e, 2023-11-25, custom)"
   xmlns:inkscape="http://www.inkscape.org/namespaces/inkscape"
   xmlns:sodipodi="http://sodipodi.sourceforge.net/DTD/sodipodi-0.dtd"
   xmlns="http://www.w3.org/2000/svg"
   xmlns:svg="http://www.w3.org/2000/svg">
  <defs
     id="defs1" />
  <sodipodi:namedview
     id="namedview1"
     pagecolor="#ffffff"
     bordercolor="#000000"
     borderopacity="0.25"
     inkscape:showpageshadow="2"
     inkscape:pageopacity="0.0"
     inkscape:pagecheckerboard="0"
     inkscape:deskcolor="#d1d1d1"
     inkscape:zoom="1.2609375"
     inkscape:cx="369.16976"
     inkscape:cy="338.63693"
     inkscape:window-width="1920"
     inkscape:window-height="1017"
     inkscape:window-x="-8"
     inkscape:window-y="-8"
     inkscape:window-maximized="1"
     inkscape:current-layer="svg1" />
  <!--!Font Awesome Free 7.1.0 by @fontawesome - https://fontawesome.com License - https://fontawesome.com/license/free Copyright 2026 Fonticons, Inc.-->
  <path
     d="M73.4 297.4C60.9 309.9 60.9 330.2 73.4 342.7L233.4 502.7C245.9 515.2 266.2 515.2 278.7 502.7C291.2 490.2 291.2 469.9 278.7 457.4L173.3 352L544 352C561.7 352 576 337.7 576 320C576 302.3 561.7 288 544 288L173.3 288L278.7 182.6C291.2 170.1 291.2 149.8 278.7 137.3C266.2 124.8 245.9 124.8 233.4 137.3L73.4 297.3z"
     id="path1"
     style="fill:#ffffff;fill-opacity:1" />
  <path
     style="fill:#ffffff;stroke:#193b0f;stroke-width:0;stroke-linecap:round;stroke-miterlimit:3.8;stroke-opacity:0.244186;fill-opacity:1"
     d="m 250.21066,511.08972 c -9.92065,-2.04798 -7.0141,0.63334 -96.85162,-89.34677 -93.936969,-94.08607 -87.865132,-87.23903 -88.559204,-99.8657 -0.403641,-7.34311 0.925732,-12.63492 4.655371,-18.53153 1.241498,-1.96282 39.832003,-41.07569 85.756673,-86.91749 91.01076,-90.84654 85.34439,-85.70025 96.53072,-87.67069 12.75061,-2.24597 26.23578,4.99583 32.35369,17.37457 2.86697,5.80094 2.9909,6.38561 2.97276,14.02502 -0.0331,13.93675 3.7016,9.37286 -59.09666,72.21734 -30.07874,30.10088 -54.68862,54.99307 -54.68862,55.31598 0,0.32292 83.8486,0.58712 186.33023,0.58712 133.34375,0 187.52532,0.25004 190.53284,0.87927 9.57484,2.00325 18.07181,8.76981 22.60535,18.00175 1.9997,4.07211 2.21683,5.3299 2.21683,12.84141 0,7.51151 -0.21713,8.7693 -2.21683,12.84141 -4.53354,9.23194 -13.03051,15.9985 -22.60535,18.00175 -3.00752,0.62923 -57.18909,0.87927 -190.53284,0.87927 -102.48163,0 -186.33023,0.2642 -186.33023,0.58712 0,0.32291 24.60988,25.2151 54.68862,55.31598 62.77767,62.82387 59.0635,58.28767 59.09666,72.1762 0.0173,7.24651 -0.19332,8.37852 -2.44165,13.12307 -2.9631,6.2529 -6.21822,10.10779 -11.27549,13.35303 -7.04083,4.51809 -15.77092,6.33338 -23.14125,4.81189 z"
     id="path2" />
  <path
     style="fill:#ffffff;stroke:#193b0f;stroke-width:0;stroke-linecap:round;stroke-miterlimit:3.8;stroke-opacity:0.244186;fill-opacity:1"
     d="m 248.88782,510.36685 c -7.85047,-1.86985 -15.6208,-9.17541 -102.21108,-96.09737 -66.312659,-66.56666 -75.317528,-75.96001 -79.247913,-82.6667 -2.020941,-3.44848 -2.130092,-4.13584 -1.873156,-11.79589 0.477074,-14.22304 -6.24902,-6.47552 84.098409,-96.86959 43.74726,-43.76985 82.39549,-81.98274 85.88495,-84.91755 9.39817,-7.9043 11.21989,-8.6901 20.22305,-8.72317 6.80245,-0.025 8.03489,0.20966 12.69124,2.41638 6.72698,3.18802 12.21793,8.74097 15.5795,15.75539 2.39518,4.99788 2.65863,6.24001 2.65863,12.53475 0,7.87934 -0.85952,10.57832 -5.33002,16.7368 -1.62812,2.24287 -26.61164,27.88289 -55.51894,56.97782 -28.9073,29.09493 -52.55872,53.27337 -52.55872,53.72987 0,0.57335 33.28843,0.86244 107.65799,0.93496 59.2119,0.0577 144.23792,0.32539 188.94672,0.59479 l 81.28872,0.48982 5.34582,2.53235 c 6.66607,3.15775 12.17933,8.57519 15.5095,15.23992 2.33293,4.66896 2.53997,5.70909 2.53997,12.76057 0,6.99425 -0.21815,8.11382 -2.45205,12.58425 -3.35283,6.70961 -8.99032,12.28677 -15.57005,15.40343 l -5.37319,2.54516 -84.06444,0.48706 c -46.23544,0.26789 -131.26146,0.53555 -188.94671,0.5948 -72.43501,0.0744 -104.88228,0.3645 -104.88228,0.93771 0,0.4565 23.65142,24.63494 52.55872,53.72987 28.9073,29.09493 53.89082,54.73496 55.51894,56.97783 4.4705,6.15847 5.33002,8.85745 5.33002,16.73679 0,6.30501 -0.26148,7.53275 -2.6784,12.57602 -1.47313,3.0739 -3.84178,6.9139 -5.26367,8.53334 -6.52984,7.43708 -19.99097,11.61161 -29.86156,9.26059 z"
     id="path3" />
  <path
     style="fill:#ffffff;stroke:#193b0f;stroke-width:0;stroke-linecap:round;stroke-miterlimit:3.8;stroke-opacity:0.244186;fill-opacity:1"
     d="M 247.59568,509.98379 C 242.55578,508.186 238.7894,505.22776 225.39641,492.54768 207.95468,476.03438 82.220804,349.768 75.194011,341.70914 c -3.090556,-3.54447 -6.584888,-8.09234 -7.765184,-10.10636 -2.020941,-3.44848 -2.130092,-4.13584 -1.873156,-11.79589 0.469324,-13.99198 -4.825411,-7.75277 72.553329,-85.49533 75.41422,-75.76881 99.60038,-99.21991 105.93399,-102.7145 3.79051,-2.09142 4.89522,-2.30999 11.71909,-2.31863 6.7821,-0.009 8.04881,0.23441 12.69124,2.43453 6.72698,3.18802 12.21793,8.74097 15.5795,15.75539 2.39518,4.99788 2.65863,6.24001 2.65863,12.53475 0,7.88454 -0.86143,10.58592 -5.33712,16.7368 -1.63203,2.24287 -26.62795,27.91352 -55.54649,57.0459 -28.91855,29.13237 -52.36728,53.31081 -52.1083,53.72986 0.29682,0.48026 40.10517,0.80072 107.68556,0.86689 58.96806,0.0577 143.79458,0.32539 188.50338,0.59479 l 81.28872,0.48982 5.34582,2.53235 c 6.66607,3.15775 12.17933,8.57519 15.5095,15.23992 2.33293,4.66896 2.53997,5.70909 2.53997,12.76057 0,6.99425 -0.21815,8.11382 -2.45205,12.58425 -3.35283,6.70961 -8.99032,12.28677 -15.57005,15.40343 l -5.37319,2.54516 -84.06444,0.48706 c -46.23544,0.26789 -131.06196,0.53555 -188.50338,0.5948 -65.80244,0.0679 -104.61314,0.38959 -104.90984,0.86964 -0.25898,0.41905 23.18975,24.59749 52.1083,53.72986 28.91854,29.13238 53.91446,54.80304 55.54649,57.04591 4.47569,6.15087 5.33712,8.85225 5.33712,16.73679 0,6.30501 -0.26148,7.53275 -2.6784,12.57602 -1.47313,3.0739 -3.84178,6.9139 -5.26367,8.53334 -6.87731,7.83283 -22.00087,12.14241 -31.1537,8.87753 z"
     id="path4" />
</svg>
