<?xml version="1.0" encoding="UTF-8" standalone="no"?>
<svg
   viewBox="0 0 640 640"
   version="1.1"
   id="svg1"
   sodipodi:docname="camera-regular-full.svg"
   inkscape:version="1.3.2 (091e20e, 2023-11-25, custom)"
   xmlns:inkscape="http://www.inkscape.org/namespaces/inkscape"
   xmlns:sodipodi="http://sodipodi.sourceforge.net/DTD/sodipodi-0.dtd"
   xmlns="http://www.w3.org/2000/svg"
   xmlns:svg="http://www.w3.org/2000/svg">
  <defs
     id="defs1" />
  <sodipodi:namedview
     id="namedview1"
     pagecolor="#ffffff"
     bordercolor="#000000"
     borderopacity="0.25"
     inkscape:showpageshadow="2"
     inkscape:pageopacity="0.0"
     inkscape:pagecheckerboard="0"
     inkscape:deskcolor="#d1d1d1"
     inkscape:zoom="1.2609375"
     inkscape:cx="359.65304"
     inkscape:cy="321.98265"
     inkscape:window-width="1920"
     inkscape:window-height="1017"
     inkscape:window-x="-8"
     inkscape:window-y="-8"
     inkscape:window-maximized="1"
     inkscape:current-layer="svg1" />
  <!--!Font Awesome Free 7.1.0 by @fontawesome - https://fontawesome.com License - https://fontawesome.com/license/free Copyright 2026 Fonticons, Inc.-->
  <path
     d="M257.1 96C238.4 96 220.9 105.4 210.5 120.9L184.5 160L128 160C92.7 160 64 188.7 64 224L64 480C64 515.3 92.7 544 128 544L512 544C547.3 544 576 515.3 576 480L576 224C576 188.7 547.3 160 512 160L455.5 160L429.5 120.9C419.1 105.4 401.6 96 382.9 96L257.1 96zM250.4 147.6C251.9 145.4 254.4 144 257.1 144L382.8 144C385.5 144 388 145.3 389.5 147.6L422.7 197.4C427.2 204.1 434.6 208.1 442.7 208.1L512 208.1C520.8 208.1 528 215.3 528 224.1L528 480.1C528 488.9 520.8 496.1 512 496.1L128 496C119.2 496 112 488.8 112 480L112 224C112 215.2 119.2 208 128 208L197.3 208C205.3 208 212.8 204 217.3 197.3L250.5 147.5zM320 448C381.9 448 432 397.9 432 336C432 274.1 381.9 224 320 224C258.1 224 208 274.1 208 336C208 397.9 258.1 448 320 448zM256 336C256 300.7 284.7 272 320 272C355.3 272 384 300.7 384 336C384 371.3 355.3 400 320 400C284.7 400 256 371.3 256 336z"
     id="path1"
     style="fill:#6b6b6b;fill-opacity:1.0" />
</svg>
