<?xml version="1.0" encoding="UTF-8" standalone="no"?>
<svg
   width="24"
   height="24"
   viewBox="0 0 24 24"
   fill="none"
   stroke="currentColor"
   stroke-width="2"
   stroke-linecap="round"
   stroke-linejoin="round"
   class="lucide lucide-package-plus-icon lucide-package-plus"
   version="1.1"
   id="svg4"
   sodipodi:docname="package-plus.svg"
   inkscape:version="1.3.2 (091e20e, 2023-11-25, custom)"
   xmlns:inkscape="http://www.inkscape.org/namespaces/inkscape"
   xmlns:sodipodi="http://sodipodi.sourceforge.net/DTD/sodipodi-0.dtd"
   xmlns="http://www.w3.org/2000/svg"
   xmlns:svg="http://www.w3.org/2000/svg">
  <defs
     id="defs4" />
  <sodipodi:namedview
     id="namedview4"
     pagecolor="#ffffff"
     bordercolor="#000000"
     borderopacity="0.25"
     inkscape:showpageshadow="2"
     inkscape:pageopacity="0.0"
     inkscape:pagecheckerboard="0"
     inkscape:deskcolor="#d1d1d1"
     inkscape:zoom="23.776466"
     inkscape:cx="14.489117"
     inkscape:cy="19.010395"
     inkscape:window-width="1920"
     inkscape:window-height="1017"
     inkscape:window-x="-8"
     inkscape:window-y="-8"
     inkscape:window-maximized="1"
     inkscape:current-layer="svg4" />
  <path
     d="M16 16h6"
     id="path1"
     style="fill:#194e42;fill-opacity:1;stroke:#193b0f;stroke-opacity:1" />
  <path
     d="M19 13v6"
     id="path2"
     style="stroke:#193b0f;stroke-opacity:1;fill:none;fill-opacity:1" />
  <path
     d="M21 10V8a2 2 0 0 0-1-1.73l-7-4a2 2 0 0 0-2 0l-7 4A2 2 0 0 0 3 8v8a2 2 0 0 0 1 1.73l7 4a2 2 0 0 0 2 0l2-1.14"
     id="path3"
     style="stroke:#193b0f;stroke-opacity:1;fill:none;fill-opacity:1" />
  <path
     d="m7.5 4.27 9 5.15"
     id="path4"
     style="stroke:#193b0f;stroke-opacity:1;fill:none;fill-opacity:1" />
  <polyline
     points="3.29 7 12 12 20.71 7"
     id="polyline4"
     style="stroke:#193b0f;stroke-opacity:1;fill:none;fill-opacity:1" />
  <line
     x1="12"
     x2="12"
     y1="22"
     y2="12"
     id="line4"
     style="fill:#194e42;fill-opacity:1;stroke:#193b0f;stroke-opacity:1" />
</svg>
